<?xml version="1.0" encoding="utf-8"?>
<!-- Generator: Adobe Illustrator 22.0.1, SVG Export Plug-In . SVG Version: 6.00 Build 0)  -->
<svg version="1.1" xmlns="http://www.w3.org/2000/svg" xmlns:xlink="http://www.w3.org/1999/xlink" x="0px" y="0px"
	 viewBox="0 0 667 90" style="enable-background:new 0 0 667 90;" xml:space="preserve">
<style type="text/css">
	.st0{display:none;}
	.st1{display:inline;}
	.st2{fill:#FFFFFF;}
	.st3{fill:#FF7800;}
	.st4{fill:#FEFFFE;}
</style>
<g id="Layer_1" class="st0">
	<g class="st1">
		<rect x="-50" y="-10" width="599.5" height="124"/>
		<path class="st2" d="M549-9.5v123H-49.5v-123H549 M550-10.5H-50.5v125H550V-10.5L550-10.5z"/>
	</g>
</g>
<g id="Layer_2">
	<rect x="286" y="11" class="st3" width="369" height="66"/>
	<g>
		<path class="st4" d="M62,61.6H47.1l-1.7-9.9H29.3L22,61.6h-6.8L42,24.8h14L62,61.6z M44.5,45.6l-2.1-12.4l-8.7,12.4H44.5z"/>
		<path class="st4" d="M106.8,24.8l-1.6,6.1H89.5c-1.8,0-2.9,0.8-3.3,2.3l-5,20c-0.1,0.3-0.1,0.6-0.1,0.8c0,1,0.8,1.5,2.3,1.5h15.7
			l-1.5,6.1H74.2c-4.7,0-7.1-2.1-7.1-6.3c0-1.1,0.2-2.4,0.5-3.8L71.7,35c1.7-6.8,5.6-10.2,11.7-10.2H106.8z"/>
		<path class="st4" d="M148,24.8l-1.6,6.1h-11.6l-7.6,30.7h-14l7.6-30.7h-11.6l1.6-6.1H148z"/>
		<path class="st4" d="M192,24.8l-6.5,25.9c-1,3.9-2.4,6.8-4.3,8.4c-1.9,1.7-4.5,2.5-8,2.5h-19.9c-5,0-7.5-2.3-7.5-6.8
			c0-1.2,0.2-2.6,0.6-4.1l6.5-25.9h14l-6.8,27.3c-0.1,0.5-0.2,0.9-0.2,1.3c0,1.4,0.9,2.1,2.6,2.1h12.4c1.3,0,2.2-0.2,2.7-0.6
			c0.6-0.4,1-1.2,1.3-2.4l7-27.7H192z"/>
		<path class="st4" d="M233.2,61.6h-14.9l-1.7-9.9h-16.1l-7.3,9.9h-6.8l26.8-36.8h14L233.2,61.6z M215.7,45.6l-2.1-12.4l-8.7,12.4
			H215.7z"/>
		<path class="st4" d="M271.9,55.5l-1.5,6.1h-31.8l9.2-36.8h14l-7.7,30.7H271.9z"/>
		<path d="M340.9,33.6l-1.6,6.4c-1.4,5.6-5,8.4-10.7,8.4h-15.2l-3.3,13.1h-14l9.2-36.8h28.8c4.9,0,7.3,1.8,7.3,5.4
			C341.4,31.2,341.3,32.3,340.9,33.6z M326.9,34c0.2-0.7,0.2-1.2,0.2-1.6c0-1-0.6-1.4-1.8-1.4h-7.6l-2.9,11.5h7.6c1.6,0,2.6-1,3-2.9
			L326.9,34z"/>
		<path d="M385.1,33l-1.8,7.1c-0.9,3.7-3.3,5.6-7,5.6l3.7,16h-15.3l-2.7-16h-4.3l-4,16h-14l9.2-36.8h29.2c5,0,7.5,1.7,7.5,5
			C385.6,30.8,385.4,31.8,385.1,33z M371.1,33c0.1-0.4,0.2-0.7,0.2-1c0-0.7-0.6-1.1-1.7-1.1h-8.2l-2.1,8.6h8.2
			c1.4,0,2.2-0.7,2.6-2.1L371.1,33z"/>
		<path d="M429.4,35l-4.1,16.4c-1.7,6.8-5.6,10.2-11.6,10.2h-21.5c-4.7,0-7.1-2.1-7.1-6.3c0-1.1,0.2-2.4,0.5-3.8l4.1-16.4
			c1.7-6.8,5.6-10.2,11.7-10.2h21.5c4.7,0,7,2.1,7,6.3C429.9,32.3,429.8,33.6,429.4,35z M415.9,33.2c0.1-0.3,0.1-0.6,0.1-0.8
			c0-1-0.8-1.5-2.3-1.5h-6.1c-1.8,0-3,0.8-3.3,2.3l-5,20c-0.1,0.3-0.1,0.6-0.1,0.8c0,1,0.8,1.5,2.3,1.5h6.1c1.8,0,2.9-0.8,3.3-2.3
			L415.9,33.2z"/>
		<path d="M473.1,35l-4.1,16.4c-1.7,6.8-5.6,10.2-11.6,10.2h-28.9l9.2-36.8h28.9c4.7,0,7,2.1,7,6.3C473.7,32.3,473.5,33.6,473.1,35z
			 M459.6,33.2c0.1-0.3,0.1-0.6,0.1-0.8c0-1-0.8-1.5-2.3-1.5h-7.2l-6.1,24.6h7.2c1.8,0,2.9-0.8,3.3-2.3L459.6,33.2z"/>
		<path d="M520.5,24.8l-6.5,25.9c-1,3.9-2.4,6.8-4.3,8.4c-1.9,1.7-4.5,2.5-8,2.5h-19.9c-5,0-7.5-2.3-7.5-6.8c0-1.2,0.2-2.6,0.6-4.1
			l6.5-25.9h14l-6.8,27.3c-0.1,0.5-0.2,0.9-0.2,1.3c0,1.4,0.9,2.1,2.6,2.1h12.4c1.3,0,2.2-0.2,2.7-0.6c0.6-0.4,1-1.2,1.3-2.4l7-27.7
			H520.5z"/>
		<path d="M562.7,24.8l-1.6,6.1h-11.6l-7.6,30.7h-14l7.6-30.7h-11.6l1.6-6.1H562.7z"/>
		<path d="M604,35l-4.1,16.4c-1.7,6.8-5.6,10.2-11.6,10.2h-21.5c-4.7,0-7.1-2.1-7.1-6.3c0-1.1,0.2-2.4,0.5-3.8l4.1-16.4
			c1.7-6.8,5.6-10.2,11.7-10.2h21.5c4.7,0,7,2.1,7,6.3C604.5,32.3,604.4,33.6,604,35z M590.5,33.2c0.1-0.3,0.1-0.6,0.1-0.8
			c0-1-0.8-1.5-2.3-1.5h-6.1c-1.8,0-3,0.8-3.3,2.3l-5,20c-0.1,0.3-0.1,0.6-0.1,0.8c0,1,0.8,1.5,2.3,1.5h6.1c1.8,0,2.9-0.8,3.3-2.3
			L590.5,33.2z"/>
		<path d="M647.2,24.8l-1.6,6.1h-19.4c-1.6,0-2.5,0.5-2.8,1.5l-0.6,2.4c0,0.2-0.1,0.3-0.1,0.5c0,0.7,0.7,1,2.2,1h10.5
			c5,0,7.5,1.7,7.5,5c0,0.7-0.1,1.3-0.3,2.1l-2.4,9.7c-1.5,5.8-4.9,8.7-10.5,8.7h-27.1l1.5-6.1h19.6c1.5,0,2.3-0.5,2.6-1.6l0.6-2.5
			c0.1-0.2,0.1-0.4,0.1-0.6c0-0.7-0.7-1-2.1-1h-12c-4,0-6-1.5-6-4.4c0-0.9,0.2-2,0.5-3.3l2.2-8.8c0.6-2.5,1.7-4.4,3.3-5.9
			c1.7-1.7,3.8-2.5,6.3-2.5H647.2z"/>
	</g>
</g>
</svg>
